<?xml version="1.0" encoding="UTF-8" standalone="no"?>
<!DOCTYPE svg PUBLIC "-//W3C//DTD SVG 1.1//EN"
"http://www.w3.org/Graphics/SVG/1.1/DTD/svg11.dtd">
<svg viewBox="0 0 935 1210" version="1.1" xmlns="http://www.w3.org/2000/svg" xmlns:xlink="http://www.w3.org/1999/xlink">
<defs>
<clipPath id="c0_1"><path d="M276.1,921.6V537.9h383V921.6Z"/></clipPath>
<clipPath id="c1_1"><path d="M275.6,921.9V537.4H659.4V921.9Z"/></clipPath>
<style type="text/css"><![CDATA[
.g0_1{
fill: #F00;
}
.g1_1{
fill: #003;
}
.g2_1{
fill: none;
stroke: #003;
stroke-width: 2.119;
stroke-miterlimit: 10;
}
.g3_1{
fill: #CC4C00;
}
.g4_1{
fill: none;
stroke: #CC4C00;
stroke-width: 2.119;
stroke-miterlimit: 10;
}
.g5_1{
fill: #FC0;
}
.g6_1{
fill: none;
stroke: #FC0;
stroke-width: 2.119;
stroke-miterlimit: 10;
}
.g7_1{
fill: #0563C1;
}
]]></style>
</defs>
<path fill-rule="evenodd" d="M110,961.9h64.4v-1.1H110v1.1Z" class="g0_1"/>
<path fill-rule="evenodd" d="M660.5,1044.1H825.1V1043H660.5v1.1Z" class="g7_1"/>
<g clip-path="url(#c1_1)">
<g clip-path="url(#c0_1)">
<path d="M445.7,540.2c-30.5,3.6,-57.5,13.5,-83,30.2c-21.4,14.1,-42.6,35.7,-56.8,58.3c-4.4,7,-12,22.1,-15.4,30.6c-12.7,32,-16.4,70,-10.2,104.6c5.4,30.2,17.8,57.7,37.5,83.6c6.9,9,25.4,27.1,34.9,34.2c24.9,18.8,52.6,30.7,82.5,35.8c48,8.3,97.4,-2.1,137.4,-28.7C615,860.5,643.4,818.3,654.2,768c3.4,-16.2,4.6,-41.2,2.8,-58.6c-2,-19,-8.2,-41.6,-16.2,-59.3c-14.3,-31.3,-38.9,-60,-67.9,-79.5C547.8,553.8,517.2,542.9,486.8,539.8c-9.5,-.9,-32.2,-.7,-41.1,.4ZM493,574.5c12.2,8.2,24.5,21.2,30.9,32.5c8.3,14.9,12.1,34.5,10.7,55.5c-.8,10.9,-1.8,17.5,-6.3,40c-3,15.3,-3.4,18.3,-3.2,24c.2,5.2,.6,7.2,2.1,10.4c5,10.8,17.3,17,29.3,15c11.5,-2,17.5,-8.3,21.1,-22.1c1.3,-5.4,2.8,-17.4,2.8,-23.8v-3.8l2.4,3.7c6.8,10.6,13.3,27.2,16,41.1c9.8,51.2,-7.6,95.3,-47.5,120.1c-26.2,16.3,-54.3,23.4,-88.9,22.5c-38.7,-1,-69.9,-11.8,-93.6,-32.4C352.1,842.6,340.7,823.1,336.5,801.9c-1.5,-7.5,-1.6,-24,-.4,-32.7C338,757,342.4,741.5,346.2,734l1.5,-3l.4,8.5c1.8,32.6,11.6,46.8,31.8,45.6c9.5,-.5,17.7,-5.5,21.8,-13.3c5.2,-9.7,4.7,-18.4,-2.6,-42.3c-4.7,-15.6,-6.6,-24,-7.4,-32.6c-1.6,-17.6,3.1,-33.5,14.5,-48.3l2.9,-3.7l.7,7.3c1.5,12.9,5.1,22,11.5,28.9c7.1,7.6,15.6,11.2,26.8,11.2c12.5,0,22.4,-4.3,32.2,-14c5.4,-5.4,6.7,-7.2,9.7,-13.4c2,-3.9,4.4,-10.2,5.4,-14c1.7,-6.3,1.8,-7.8,1.8,-21.5c0,-11.4,-.2,-16.3,-1.2,-21.6c-1.7,-9.3,-4.6,-20.5,-7.8,-30c-1.5,-4.3,-2.5,-7.9,-2.3,-7.9c.2,0,3.4,2,7.1,4.6Z" class="g1_1"/>
<path d="M445.7,540.2c-30.5,3.6,-57.5,13.5,-83,30.2c-21.4,14.1,-42.6,35.7,-56.8,58.3c-4.4,7,-12,22.1,-15.4,30.6c-12.7,32,-16.4,70,-10.2,104.6c5.4,30.2,17.8,57.7,37.5,83.6c6.9,9,25.4,27.1,34.9,34.2c24.9,18.8,52.6,30.7,82.5,35.8c48,8.3,97.4,-2.1,137.4,-28.7C615,860.5,643.4,818.3,654.2,768c3.4,-16.2,4.6,-41.2,2.8,-58.6c-2,-19,-8.2,-41.6,-16.2,-59.3c-14.3,-31.3,-38.9,-60,-67.9,-79.5C547.8,553.8,517.2,542.9,486.8,539.8c-9.5,-.9,-32.2,-.7,-41.1,.4ZM493,574.5c12.2,8.2,24.5,21.2,30.9,32.5c8.3,14.9,12.1,34.5,10.7,55.5c-.8,10.9,-1.8,17.5,-6.3,40c-3,15.3,-3.4,18.3,-3.2,24c.2,5.2,.6,7.2,2.1,10.4c5,10.8,17.3,17,29.3,15c11.5,-2,17.5,-8.3,21.1,-22.1c1.3,-5.4,2.8,-17.4,2.8,-23.8v-3.8l2.4,3.7c6.8,10.6,13.3,27.2,16,41.1c9.8,51.2,-7.6,95.3,-47.5,120.1c-26.2,16.3,-54.3,23.4,-88.9,22.5c-38.7,-1,-69.9,-11.8,-93.6,-32.4C352.1,842.6,340.7,823.1,336.5,801.9c-1.5,-7.5,-1.6,-24,-.4,-32.7C338,757,342.4,741.5,346.2,734l1.5,-3l.4,8.5c1.8,32.6,11.6,46.8,31.8,45.6c9.5,-.5,17.7,-5.5,21.8,-13.3c5.2,-9.7,4.7,-18.4,-2.6,-42.3c-4.7,-15.6,-6.6,-24,-7.4,-32.6c-1.6,-17.6,3.1,-33.5,14.5,-48.3l2.9,-3.7l.7,7.3c1.5,12.9,5.1,22,11.5,28.9c7.1,7.6,15.6,11.2,26.8,11.2c12.5,0,22.4,-4.3,32.2,-14c5.4,-5.4,6.7,-7.2,9.7,-13.4c2,-3.9,4.4,-10.2,5.4,-14c1.7,-6.3,1.8,-7.8,1.8,-21.5c0,-11.4,-.2,-16.3,-1.2,-21.6c-1.7,-9.3,-4.6,-20.5,-7.8,-30c-1.5,-4.3,-2.5,-7.9,-2.3,-7.9c.2,0,3.4,2,7.1,4.6Z" class="g2_1"/>
</g>
<path d="M486,570.8c0,.1,.9,2.9,2.1,6.1c14.3,41.5,12.9,76.4,-4.1,97.7c-13.6,17.2,-36.4,22.9,-54.2,13.4c-12,-6.4,-20.3,-22.2,-20.4,-39.4q0,-3,-1.3,-1.8c-2.4,2.1,-8.3,11.2,-10.6,16.4c-4.6,9.7,-5.5,14.3,-5.5,27.7c0,13.5,.3,14.9,7.5,39.3c6.2,21.2,7.1,30,3.8,38.8c-2.1,5.5,-7.1,10.9,-12.9,13.7c-4,1.9,-5.2,2.2,-11.4,2.4c-8.7,.4,-13.3,-1.2,-18.5,-6.1C352.9,771.8,349.2,760.5,348,740.3l-.5,-8.7l-1.8,3.7c-8.5,18.4,-12.4,46.9,-9.2,65.5c3.6,19.9,12.2,36,27.4,51.1c14.8,14.8,31.4,24.6,52.4,30.8c6.5,2,21.9,5.2,22.6,4.7c.3,-.1,2.3,.1,4.5,.7c4.8,1.1,12.7,1.8,12.2,1.1c-.2,-.3,-2.1,-1.1,-4.3,-1.8C445.9,885.7,430,877.7,424,873.7c-18.3,-12.3,-28.2,-26.6,-31.3,-45c-1.4,-8.1,-1.9,-16.1,-1.2,-16.1c.4,0,2,2.1,3.6,4.6c3.7,5.8,10.8,13.4,15.4,16.3c9.2,5.9,20.5,6.1,26.5,.4c4.5,-4.3,6.2,-10.1,8.3,-28.8c1,-8.1,2.1,-17,2.5,-19.8c4.1,-28.4,14.8,-50.3,32.9,-67.4c6.1,-5.8,10.8,-9.6,10.8,-8.7c0,.4,-1,2.8,-2.1,5.4c-3.3,7.3,-9.3,25.9,-10.8,33.4c-5.5,27.2,-2.2,49.9,9.7,65.7c13,17.2,33.7,19.5,49,5.3c7,-6.5,11.6,-14.3,15.1,-25.5l1.7,-5.2l.2,5.5c.4,9.6,-2.1,24.8,-5.8,35.8c-2.2,6.6,-7.6,17.1,-11.7,23c-8.8,12.3,-21,22.9,-37.1,31.9c-3.9,2.2,-5.3,3.3,-4.2,3.3c.8,0,2.1,-.3,2.8,-.7c.6,-.3,2.2,-.7,3.5,-.9c1.3,-.1,4.1,-.8,6.2,-1.4c2.2,-.7,4.7,-1.3,5.5,-1.4c.9,-.1,2.1,-.4,2.6,-.7c3.6,-1.5,10.9,-3.6,11.2,-3.2c.2,.2,.4,0,.4,-.4c0,-.6,2.6,-1.6,3.8,-1.5c1,0,17.4,-8.9,22.9,-12.7c22.3,-15,37,-35.6,43.3,-61c2.6,-10,3.4,-17.1,3.4,-28.9c0,-16.3,-1.9,-29.1,-6.5,-43.4c-2.2,-6.8,-10.2,-23.7,-12.9,-27l-1.3,-1.7v4.6c0,7.1,-1.3,17.3,-2.8,23.1c-2.8,10.4,-8.6,17.7,-15.9,20.3c-5.3,1.8,-15.2,1.6,-20.5,-.4c-5.1,-2,-11.2,-7.7,-13.6,-12.6c-4,-8.2,-4,-13.6,.8,-36.7c5.2,-25.1,5.8,-29.5,5.8,-46.9c0,-12.9,-.2,-16.8,-1.3,-21.8C527.8,608,515.1,589.9,492.2,574.1c-4.5,-3.1,-6.2,-4,-6.2,-3.3Z" class="g3_1"/>
<path d="M486,570.8c0,.1,.9,2.9,2.1,6.1c14.3,41.5,12.9,76.4,-4.1,97.7c-13.6,17.2,-36.4,22.9,-54.2,13.4c-12,-6.4,-20.3,-22.2,-20.4,-39.4q0,-3,-1.3,-1.8c-2.4,2.1,-8.3,11.2,-10.6,16.4c-4.6,9.7,-5.5,14.3,-5.5,27.7c0,13.5,.3,14.9,7.5,39.3c6.2,21.2,7.1,30,3.8,38.8c-2.1,5.5,-7.1,10.9,-12.9,13.7c-4,1.9,-5.2,2.2,-11.4,2.4c-8.7,.4,-13.3,-1.2,-18.5,-6.1C352.9,771.8,349.2,760.5,348,740.3l-.5,-8.7l-1.8,3.7c-8.5,18.4,-12.4,46.9,-9.2,65.5c3.6,19.9,12.2,36,27.4,51.1c14.8,14.8,31.4,24.6,52.4,30.8c6.5,2,21.9,5.2,22.6,4.7c.3,-.1,2.3,.1,4.5,.7c4.8,1.1,12.7,1.8,12.2,1.1c-.2,-.3,-2.1,-1.1,-4.3,-1.8C445.9,885.7,430,877.7,424,873.7c-18.3,-12.3,-28.2,-26.6,-31.3,-45c-1.4,-8.1,-1.9,-16.1,-1.2,-16.1c.4,0,2,2.1,3.6,4.6c3.7,5.8,10.8,13.4,15.4,16.3c9.2,5.9,20.5,6.1,26.5,.4c4.5,-4.3,6.2,-10.1,8.3,-28.8c1,-8.1,2.1,-17,2.5,-19.8c4.1,-28.4,14.8,-50.3,32.9,-67.4c6.1,-5.8,10.8,-9.6,10.8,-8.7c0,.4,-1,2.8,-2.1,5.4c-3.3,7.3,-9.3,25.9,-10.8,33.4c-5.5,27.2,-2.2,49.9,9.7,65.7c13,17.2,33.7,19.5,49,5.3c7,-6.5,11.6,-14.3,15.1,-25.5l1.7,-5.2l.2,5.5c.4,9.6,-2.1,24.8,-5.8,35.8c-2.2,6.6,-7.6,17.1,-11.7,23c-8.8,12.3,-21,22.9,-37.1,31.9c-3.9,2.2,-5.3,3.3,-4.2,3.3c.8,0,2.1,-.3,2.8,-.7c.6,-.3,2.2,-.7,3.5,-.9c1.3,-.1,4.1,-.8,6.2,-1.4c2.2,-.7,4.7,-1.3,5.5,-1.4c.9,-.1,2.1,-.4,2.6,-.7c3.6,-1.5,10.9,-3.6,11.2,-3.2c.2,.2,.4,0,.4,-.4c0,-.6,2.6,-1.6,3.8,-1.5c1,0,17.4,-8.9,22.9,-12.7c22.3,-15,37,-35.6,43.3,-61c2.6,-10,3.4,-17.1,3.4,-28.9c0,-16.3,-1.9,-29.1,-6.5,-43.4c-2.2,-6.8,-10.2,-23.7,-12.9,-27l-1.3,-1.7v4.6c0,7.1,-1.3,17.3,-2.8,23.1c-2.8,10.4,-8.6,17.7,-15.9,20.3c-5.3,1.8,-15.2,1.6,-20.5,-.4c-5.1,-2,-11.2,-7.7,-13.6,-12.6c-4,-8.2,-4,-13.6,.8,-36.7c5.2,-25.1,5.8,-29.5,5.8,-46.9c0,-12.9,-.2,-16.8,-1.3,-21.8C527.8,608,515.1,589.9,492.2,574.1c-4.5,-3.1,-6.2,-4,-6.2,-3.3Z" class="g4_1"/>
<path d="M486.3,713.3C469,728,457.4,746.4,451.6,768.8c-2.2,8.3,-3.4,15.8,-5.5,34.6c-2.4,21.1,-4.1,26.8,-9.4,31.4c-5.5,4.6,-14.8,5,-23,1c-5.6,-2.7,-14.1,-11,-18.7,-17.9c-3.5,-5.6,-3.8,-5.1,-2.7,4.8c3.2,29.4,19.3,47.5,56.1,63.1l8.6,3.7l12.3,-.1c18.6,-.2,22.4,-.8,30.3,-5.3c31.3,-17.7,48.4,-41.5,53,-73.9c1,-6.6,2.1,-23.2,1.4,-20.5c-3,11.6,-8,21,-15,28.1c-6.4,6.4,-11.8,9.4,-19.3,10.6c-18.8,3.1,-36.5,-12.9,-42.3,-38c-2,-8.4,-1.8,-30.1,.3,-40.4c2.2,-11.3,8.3,-29.9,12.1,-37.2c.6,-1.2,.9,-2.3,.8,-2.5c-.2,-.2,-2.1,1.2,-4.3,3Z" class="g5_1"/>
<path d="M486.3,713.3C469,728,457.4,746.4,451.6,768.8c-2.2,8.3,-3.4,15.8,-5.5,34.6c-2.4,21.1,-4.1,26.8,-9.4,31.4c-5.5,4.6,-14.8,5,-23,1c-5.6,-2.7,-14.1,-11,-18.7,-17.9c-3.5,-5.6,-3.8,-5.1,-2.7,4.8c3.2,29.4,19.3,47.5,56.1,63.1l8.6,3.7l12.3,-.1c18.6,-.2,22.4,-.8,30.3,-5.3c31.3,-17.7,48.4,-41.5,53,-73.9c1,-6.6,2.1,-23.2,1.4,-20.5c-3,11.6,-8,21,-15,28.1c-6.4,6.4,-11.8,9.4,-19.3,10.6c-18.8,3.1,-36.5,-12.9,-42.3,-38c-2,-8.4,-1.8,-30.1,.3,-40.4c2.2,-11.3,8.3,-29.9,12.1,-37.2c.6,-1.2,.9,-2.3,.8,-2.5c-.2,-.2,-2.1,1.2,-4.3,3Z" class="g6_1"/>
</g>
</svg>