<?xml version="1.0" encoding="UTF-8" standalone="no"?>
<!DOCTYPE svg PUBLIC "-//W3C//DTD SVG 1.1//EN"
"http://www.w3.org/Graphics/SVG/1.1/DTD/svg11.dtd">
<svg viewBox="0 0 935 1210" version="1.1" xmlns="http://www.w3.org/2000/svg" xmlns:xlink="http://www.w3.org/1999/xlink">
<defs>
<clipPath id="c0_5"><path d="M225.4,1080V651.3H710.5V1080Z"/></clipPath>
<clipPath id="c1_5"><path d="M224.6,1080V650.5H710.5V1080Z"/></clipPath>
<clipPath id="c2_5"><path d="M110,95.1V21.8h73.3V95.1Z"/></clipPath>
<style type="text/css"><![CDATA[
.g0_5{
fill: #2F5496;
}
.g1_5{
fill: #1F3763;
}
.g2_5{
fill: #000;
}
.g3_5{
fill: #4472C4;
}
.g4_5{
fill: #D9E1F2;
}
.g5_5{
fill: none;
stroke: #8EA9DB;
stroke-width: 0.877;
stroke-linecap: square;
stroke-linejoin: round;
}
.g6_5{
fill: #8EA9DB;
}
.g7_5{
fill: none;
stroke: #D3D3D3;
stroke-width: 0.877;
stroke-linecap: square;
stroke-linejoin: round;
}
.g8_5{
fill: #D3D3D3;
}
]]></style>
</defs>
<image clip-path="url(#c2_5)" preserveAspectRatio="none" x="110" y="22" width="73" height="73" xlink:href="img/1.png"/>
<path fill-rule="evenodd" d="M358.9,137.7H576.3v-1.3H358.9v1.3Z" class="g0_5"/>
<path fill-rule="evenodd" d="M110,193.3H262.6v-1H110v1Z" class="g1_5"/>
<path fill-rule="evenodd" d="M448.7,409.6H458v-1.1h-9.3v1.1Z" class="g2_5"/>
<path fill-rule="evenodd" d="M397,426.1H628.8V425H397v1.1Z" class="g2_5"/>
<path fill-rule="evenodd" d="M658.1,426.1h9.3V425h-9.3v1.1Z" class="g2_5"/>
<g clip-path="url(#c1_5)">
<g clip-path="url(#c0_5)">
<path fill-rule="evenodd" d="M224.6,710.2H710.5V691.7H224.6v18.5Z" class="g3_5"/>
<path fill-rule="evenodd" d="M224.6,727.7H710.5V709.3H224.6v18.4Z" class="g4_5"/>
<path fill-rule="evenodd" d="M224.6,762.9H710.5V744.4H224.6v18.5Z" class="g4_5"/>
<path fill-rule="evenodd" d="M224.6,798H710.5V779.6H224.6V798Z" class="g4_5"/>
<path fill-rule="evenodd" d="M224.6,833.2H710.5V814.7H224.6v18.5Z" class="g4_5"/>
<path fill-rule="evenodd" d="M224.6,868.3H710.5V849.9H224.6v18.4Z" class="g4_5"/>
<path fill-rule="evenodd" d="M224.6,903.4H710.5V885H224.6v18.4Z" class="g4_5"/>
<path fill-rule="evenodd" d="M224.6,938.6H710.5V920.2H224.6v18.4Z" class="g4_5"/>
<path fill-rule="evenodd" d="M224.6,973.7H710.5V955.3H224.6v18.4Z" class="g4_5"/>
<path fill-rule="evenodd" d="M224.6,1008.9H710.5V990.4H224.6v18.5Z" class="g4_5"/>
<path fill-rule="evenodd" d="M224.6,1044H710.5v-18.4H224.6V1044Z" class="g4_5"/>
<path fill-rule="evenodd" d="M224.6,1080.1H710.5v-19.4H224.6v19.4Z" class="g4_5"/>
</g>
<g clip-path="url(#c1_5)">
<path fill-rule="evenodd" d="M225.4,651.3H710.5v-1.8H225.4v1.8Z" class="g2_5"/>
<path fill-rule="evenodd" d="M225.4,692.6H710.5v-1.8H225.4v1.8Z" class="g2_5"/>
</g>
<path d="M225.9,709.7H708.3" class="g5_5"/>
<path fill-rule="evenodd" d="M225.4,710.2H708.7v-.9H225.4v.9Z" class="g6_5"/>
<path d="M225.9,727.3H708.3" class="g5_5"/>
<path fill-rule="evenodd" d="M225.4,727.7H708.7v-.9H225.4v.9Z" class="g6_5"/>
<path d="M313.7,728.2V744" class="g7_5"/>
<path fill-rule="evenodd" d="M313.3,744.4h.9V727.7h-.9v16.7Z" class="g8_5"/>
<path d="M437.6,728.2V744" class="g7_5"/>
<path fill-rule="evenodd" d="M437.2,744.4h.9V727.7h-.9v16.7Z" class="g8_5"/>
<path d="M561.5,728.2V744" class="g7_5"/>
<path fill-rule="evenodd" d="M561.1,744.4h.9V727.7h-.9v16.7Z" class="g8_5"/>
<path d="M225.9,744.8H708.3" class="g5_5"/>
<path fill-rule="evenodd" d="M225.4,745.3H708.7v-.9H225.4v.9Z" class="g6_5"/>
<path d="M225.9,762.4H708.3" class="g5_5"/>
<path fill-rule="evenodd" d="M225.4,762.9H708.7V762H225.4v.9Z" class="g6_5"/>
<path d="M313.7,763.3v15.8" class="g7_5"/>
<path fill-rule="evenodd" d="M313.3,779.6h.9V762.9h-.9v16.7Z" class="g8_5"/>
<path d="M437.6,763.3v15.8" class="g7_5"/>
<path fill-rule="evenodd" d="M437.2,779.6h.9V762.9h-.9v16.7Z" class="g8_5"/>
<path d="M561.5,763.3v15.8" class="g7_5"/>
<path fill-rule="evenodd" d="M561.1,779.6h.9V762.9h-.9v16.7Z" class="g8_5"/>
<path d="M225.9,780H708.3" class="g5_5"/>
<path fill-rule="evenodd" d="M225.4,780.4H708.7v-.8H225.4v.8Z" class="g6_5"/>
<path d="M225.9,797.6H708.3" class="g5_5"/>
<path fill-rule="evenodd" d="M225.4,798H708.7v-.9H225.4v.9Z" class="g6_5"/>
<path d="M313.7,798.4v15.9" class="g7_5"/>
<path fill-rule="evenodd" d="M313.3,814.7h.9V798h-.9v16.7Z" class="g8_5"/>
<path d="M437.6,798.4v15.9" class="g7_5"/>
<path fill-rule="evenodd" d="M437.2,814.7h.9V798h-.9v16.7Z" class="g8_5"/>
<path d="M561.5,798.4v15.9" class="g7_5"/>
<path fill-rule="evenodd" d="M561.1,814.7h.9V798h-.9v16.7Z" class="g8_5"/>
<path d="M225.9,815.1H708.3" class="g5_5"/>
<path fill-rule="evenodd" d="M225.4,815.6H708.7v-.9H225.4v.9Z" class="g6_5"/>
<path d="M225.9,832.7H708.3" class="g5_5"/>
<path fill-rule="evenodd" d="M225.4,833.2H708.7v-.9H225.4v.9Z" class="g6_5"/>
<path d="M313.7,833.6v15.8" class="g7_5"/>
<path fill-rule="evenodd" d="M313.3,849.9h.9V833.2h-.9v16.7Z" class="g8_5"/>
<path d="M437.6,833.6v15.8" class="g7_5"/>
<path fill-rule="evenodd" d="M437.2,849.9h.9V833.2h-.9v16.7Z" class="g8_5"/>
<path d="M561.5,833.6v15.8" class="g7_5"/>
<path fill-rule="evenodd" d="M561.1,849.9h.9V833.2h-.9v16.7Z" class="g8_5"/>
<path d="M225.9,850.3H708.3" class="g5_5"/>
<path fill-rule="evenodd" d="M225.4,850.7H708.7v-.8H225.4v.8Z" class="g6_5"/>
<path d="M225.9,867.9H708.3" class="g5_5"/>
<path fill-rule="evenodd" d="M225.4,868.3H708.7v-.9H225.4v.9Z" class="g6_5"/>
<path d="M313.7,868.7v15.9" class="g7_5"/>
<path fill-rule="evenodd" d="M313.3,885h.9V868.3h-.9V885Z" class="g8_5"/>
<path d="M437.6,868.7v15.9" class="g7_5"/>
<path fill-rule="evenodd" d="M437.2,885h.9V868.3h-.9V885Z" class="g8_5"/>
<path d="M561.5,868.7v15.9" class="g7_5"/>
<path fill-rule="evenodd" d="M561.1,885h.9V868.3h-.9V885Z" class="g8_5"/>
<path d="M225.9,885.4H708.3" class="g5_5"/>
<path fill-rule="evenodd" d="M225.4,885.9H708.7V885H225.4v.9Z" class="g6_5"/>
<path d="M225.9,903H708.3" class="g5_5"/>
<path fill-rule="evenodd" d="M225.4,903.4H708.7v-.8H225.4v.8Z" class="g6_5"/>
<path d="M313.7,903.9v15.8" class="g7_5"/>
<path fill-rule="evenodd" d="M313.3,920.2h.9V903.4h-.9v16.8Z" class="g8_5"/>
<path d="M437.6,903.9v15.8" class="g7_5"/>
<path fill-rule="evenodd" d="M437.2,920.2h.9V903.4h-.9v16.8Z" class="g8_5"/>
<path d="M561.5,903.9v15.8" class="g7_5"/>
<path fill-rule="evenodd" d="M561.1,920.2h.9V903.4h-.9v16.8Z" class="g8_5"/>
<path d="M225.9,920.6H708.3" class="g5_5"/>
<path fill-rule="evenodd" d="M225.4,921H708.7v-.8H225.4v.8Z" class="g6_5"/>
<path d="M225.9,938.2H708.3" class="g5_5"/>
<path fill-rule="evenodd" d="M225.4,938.6H708.7v-.9H225.4v.9Z" class="g6_5"/>
<path d="M313.7,939v15.9" class="g7_5"/>
<path fill-rule="evenodd" d="M313.3,955.3h.9V938.6h-.9v16.7Z" class="g8_5"/>
<path d="M437.6,939v15.9" class="g7_5"/>
<path fill-rule="evenodd" d="M437.2,955.3h.9V938.6h-.9v16.7Z" class="g8_5"/>
<path d="M561.5,939v15.9" class="g7_5"/>
<path fill-rule="evenodd" d="M561.1,955.3h.9V938.6h-.9v16.7Z" class="g8_5"/>
<path d="M225.9,955.7H708.3" class="g5_5"/>
<path fill-rule="evenodd" d="M225.4,956.2H708.7v-.9H225.4v.9Z" class="g6_5"/>
<path d="M225.9,973.3H708.3" class="g5_5"/>
<path fill-rule="evenodd" d="M225.4,973.7H708.7v-.8H225.4v.8Z" class="g6_5"/>
<path d="M313.7,974.2V990" class="g7_5"/>
<path fill-rule="evenodd" d="M313.3,990.4h.9V973.7h-.9v16.7Z" class="g8_5"/>
<path d="M437.6,974.2V990" class="g7_5"/>
<path fill-rule="evenodd" d="M437.2,990.4h.9V973.7h-.9v16.7Z" class="g8_5"/>
<path d="M561.5,974.2V990" class="g7_5"/>
<path fill-rule="evenodd" d="M561.1,990.4h.9V973.7h-.9v16.7Z" class="g8_5"/>
<path d="M225.9,990.9H708.3" class="g5_5"/>
<path fill-rule="evenodd" d="M225.4,991.3H708.7v-.9H225.4v.9Z" class="g6_5"/>
<path d="M225.9,1008.5H708.3" class="g5_5"/>
<path fill-rule="evenodd" d="M225.4,1008.9H708.7v-.9H225.4v.9Z" class="g6_5"/>
<path d="M313.7,1009.3v15.8" class="g7_5"/>
<path fill-rule="evenodd" d="M313.3,1025.6h.9v-16.7h-.9v16.7Z" class="g8_5"/>
<path d="M437.6,1009.3v15.8" class="g7_5"/>
<path fill-rule="evenodd" d="M437.2,1025.6h.9v-16.7h-.9v16.7Z" class="g8_5"/>
<path d="M561.5,1009.3v15.8" class="g7_5"/>
<path fill-rule="evenodd" d="M561.1,1025.6h.9v-16.7h-.9v16.7Z" class="g8_5"/>
<path d="M225.9,1026H708.3" class="g5_5"/>
<path fill-rule="evenodd" d="M225.4,1026.5H708.7v-.9H225.4v.9Z" class="g6_5"/>
<path d="M225.9,1043.6H708.3" class="g5_5"/>
<path fill-rule="evenodd" d="M225.4,1044H708.7v-.8H225.4v.8Z" class="g6_5"/>
<path d="M313.7,1044.5v15.8" class="g7_5"/>
<path fill-rule="evenodd" d="M313.3,1060.7h.9V1044h-.9v16.7Z" class="g8_5"/>
<path d="M437.6,1044.5v15.8" class="g7_5"/>
<path fill-rule="evenodd" d="M437.2,1060.7h.9V1044h-.9v16.7Z" class="g8_5"/>
<path d="M561.5,1044.5v15.8" class="g7_5"/>
<path fill-rule="evenodd" d="M561.1,1060.7h.9V1044h-.9v16.7Z" class="g8_5"/>
<path d="M225.9,1061.2H708.3" class="g5_5"/>
<path fill-rule="evenodd" d="M225.4,1061.6H708.7v-.9H225.4v.9Z" class="g6_5"/>
<g clip-path="url(#c1_5)">
<path fill-rule="evenodd" d="M223.7,1080.1h1.7V649.5h-1.7v430.6Z" class="g2_5"/>
<path fill-rule="evenodd" d="M225.4,1080.1H710.5v-1.8H225.4v1.8Z" class="g2_5"/>
<path fill-rule="evenodd" d="M708.7,1080.1h1.8V651.3h-1.8v428.8Z" class="g2_5"/>
<path fill-rule="evenodd" d="M224.6,1080.9h.8v-.8h-.8v.8Z" class="g8_5"/>
<path fill-rule="evenodd" d="M313.3,1080.9h.9v-.8h-.9v.8Z" class="g8_5"/>
<path fill-rule="evenodd" d="M437.2,1080.9h.9v-.8h-.9v.8Z" class="g8_5"/>
<path fill-rule="evenodd" d="M561.1,1080.9h.9v-.8h-.9v.8Z" class="g8_5"/>
<path fill-rule="evenodd" d="M709.6,1080.9h.9v-.8h-.9v.8Z" class="g8_5"/>
</g>
</g>
</svg>